<?xml version="1.0" encoding="utf-8"?>
<!-- Generator: Adobe Illustrator 19.0.0, SVG Export Plug-In . SVG Version: 6.00 Build 0)  -->
<svg version="1.1" id="图层_1" xmlns="http://www.w3.org/2000/svg" xmlns:xlink="http://www.w3.org/1999/xlink" x="0px" y="0px"
	 viewBox="0 0 800 800" style="enable-background:new 0 0 800 800;" xml:space="preserve">
<style type="text/css">
	.st0{fill:#262D2B;}
	.st1{fill:#F5F5F5;}
</style>
<path id="XMLID_13_" class="st0" d="M400,794.2L400,794.2C182.3,794.2,5.8,617.7,5.8,400v0C5.8,182.3,182.3,5.8,400,5.8h0
	c217.7,0,394.2,176.5,394.2,394.2v0C794.2,617.7,617.7,794.2,400,794.2z"/>
<g id="XMLID_53_">
	<path id="XMLID_57_" class="st1" d="M405.1,313.4l-7.9-13.7l-133.6,77.1l18.4,31.9l100.4-57.9c19,50.7-1.1,107.9-48.6,135.3
		c-28.4,16.4-62.4,19.4-93.3,8.3c-30.9-11.1-55.2-35.3-66.9-66.4c-6.2-16.7-8.3-34.9-5.9-52.6c4.7-34.8,24.7-64.7,54.8-82.1
		c34.5-19.9,77.2-19.8,111.7,0.2l5.3,3.1l18.5-31.8l-5.3-3.1c-45.8-26.6-102.8-26.7-148.6-0.3c-39.5,22.8-65.9,61.9-72.6,107.4
		c-3.8,26-0.5,52.7,9.6,77c23.2,55.8,77.1,91.9,137.3,91.9c30.2,0,59.4-9.2,84.5-26.6C423.4,469.1,442.8,378.5,405.1,313.4z"/>
	<path id="XMLID_56_" class="st1" d="M607.2,318.7v123.5c0,32.4-26.3,58.7-58.7,58.7s-58.7-26.3-58.7-58.7V318.7h-36.8v123.5
		c0,52.7,42.9,95.5,95.5,95.5s95.5-42.9,95.5-95.5V318.7H607.2z"/>
	<path id="XMLID_55_" class="st1" d="M471.3,302.1c9,0,16.4-7.3,16.4-16.4c0-9-7.3-16.4-16.4-16.4c-9,0-16.4,7.3-16.4,16.4
		C454.9,294.8,462.3,302.1,471.3,302.1z"/>
	<rect id="XMLID_54_" x="609.2" y="269.4" class="st1" width="32.7" height="32.7"/>
</g>
</svg>
