<?xml version="1.0" encoding="utf-8"?>
<!-- Generator: Adobe Illustrator 19.0.0, SVG Export Plug-In . SVG Version: 6.00 Build 0)  -->
<svg version="1.1" id="图层_1" xmlns="http://www.w3.org/2000/svg" xmlns:xlink="http://www.w3.org/1999/xlink" x="0px" y="0px"
	 viewBox="0 0 100 100" style="enable-background:new 0 0 100 100;" xml:space="preserve">
<style type="text/css">
	.st0{fill:#262D2B;}
</style>
<path id="XMLID_35_" class="st0" d="M45.3,67.7c-4.9,3.4-10.6,5.2-16.4,5.2c-11.7,0-22.2-7-26.7-17.9c-2-4.7-2.6-9.9-1.9-15
	c1.3-8.8,6.5-16.5,14.1-20.9c8.9-5.2,20-5.1,28.9,0.1l1,0.6L40.8,26l-1-0.6c-6.7-3.9-15-3.9-21.7,0c-5.9,3.4-9.7,9.2-10.7,16
	c-0.5,3.5-0.1,7,1.1,10.2c2.3,6,7,10.8,13,12.9c6,2.2,12.6,1.6,18.1-1.6c9.2-5.3,13.2-16.5,9.5-26.3L29.6,47.8L26,41.6l26-15
	l1.5,2.7C60.9,41.9,57.1,59.5,45.3,67.7z"/>
<path id="XMLID_40_" class="st0" d="M92.8,30.3v24c0,6.3-5.1,11.4-11.4,11.4S70,60.6,70,54.3v-24h-7.2v24c0,10.2,8.3,18.6,18.6,18.6
	S100,64.5,100,54.3v-24H92.8z"/>
<path id="XMLID_39_" class="st0" d="M66.4,27c1.8,0,3.2-1.4,3.2-3.2c0-1.8-1.4-3.2-3.2-3.2c-1.8,0-3.2,1.4-3.2,3.2
	C63.2,25.6,64.6,27,66.4,27z"/>
<rect id="XMLID_36_" x="93.2" y="20.7" class="st0" width="6.4" height="6.4"/>
</svg>
