<?xml version="1.0" encoding="utf-8"?>
<!-- Generator: Adobe Illustrator 19.0.0, SVG Export Plug-In . SVG Version: 6.00 Build 0)  -->
<svg version="1.1" id="图层_1" xmlns="http://www.w3.org/2000/svg" xmlns:xlink="http://www.w3.org/1999/xlink" x="0px" y="0px"
	 viewBox="0 0 400 400" style="enable-background:new 0 0 400 400;" xml:space="preserve">
<style type="text/css">
	.st0{fill:none;stroke:#252D2A;stroke-width:15;stroke-miterlimit:10;}
	.st1{fill:#252D2A;}
</style>
<path id="XMLID_13_" class="st0" d="M200,379.8L200,379.8c-99.3,0-179.8-80.5-179.8-179.8l0,0c0-99.3,80.5-179.8,179.8-179.8l0,0
	c99.3,0,179.8,80.5,179.8,179.8l0,0C379.8,299.1,299.3,379.8,200,379.8z"/>
<g id="XMLID_53_">
	<path id="XMLID_57_" class="st1" d="M204.1,161.2l-4-7l-67.5,38.9l9.2,16.2l50.8-29.3c9.6,25.6-0.6,54.6-24.6,68.5
		c-14.3,8.3-31.6,9.8-47.2,4.1c-15.6-5.6-28-17.9-33.9-33.5c-3.2-8.5-4.1-17.7-3-26.5c2.4-17.7,12.4-32.7,27.7-41.6
		c17.5-10,39.1-10,56.4,0.2l2.6,1.5l9.4-16.2l-2.6-1.5c-23.1-13.5-51.9-13.5-75.2-0.2c-19.9,11.5-33.3,31.4-36.7,54.4
		c-1.9,13.2-0.2,26.7,4.9,38.9c11.7,28.2,38.9,46.5,69.4,46.5c15.2,0,30.1-4.7,42.7-13.4C213.5,240.1,223.3,194.2,204.1,161.2z"/>
	<path id="XMLID_56_" class="st1" d="M306.5,163.9v62.5c0,16.4-13.4,29.7-29.7,29.7c-16.4,0-29.7-13.4-29.7-29.7v-62.5h-18.6v62.5
		c0,26.7,21.6,48.3,48.3,48.3s48.3-21.6,48.3-48.3v-62.5H306.5z"/>
	<path id="XMLID_55_" class="st1" d="M237.6,155.6c4.5,0,8.3-3.8,8.3-8.3s-3.8-8.3-8.3-8.3s-8.3,3.8-8.3,8.3
		S233.1,155.6,237.6,155.6z"/>
	<rect id="XMLID_54_" x="307.4" y="139.1" class="st1" width="16.6" height="16.6"/>
</g>
</svg>
