<?xml version="1.0" encoding="utf-8"?>
<!-- Generator: Adobe Illustrator 19.0.0, SVG Export Plug-In . SVG Version: 6.00 Build 0)  -->
<svg version="1.1" id="图层_1" xmlns="http://www.w3.org/2000/svg" xmlns:xlink="http://www.w3.org/1999/xlink" x="0px" y="0px"
	 viewBox="0 0 28 18" style="enable-background:new 0 0 28 18;" xml:space="preserve">
<style type="text/css">
	.st0{fill:#222C29;}
</style>
<path id="XMLID_2_" class="st0" d="M1.4,14.4l23.2-14c0.3-0.2,0.5-0.1,0.6,0.1L26.7,3c0.1,0.2,0,0.4-0.1,0.5l-23.3,14
	c-0.1,0.2-0.4,0.1-0.5-0.1l-1.5-2.5C1.1,14.8,1.2,14.5,1.4,14.4z"/>
<path id="XMLID_1_" class="st0" d="M26.7,14.9l-1.5,2.5c-0.2,0.3-0.4,0.3-0.5,0.1L1.4,3.5C1.2,3.4,1.1,3.2,1.3,3l1.5-2.5
	c0.1-0.2,0.4-0.2,0.6-0.1l23.2,14C26.8,14.5,26.9,14.8,26.7,14.9z"/>
</svg>
