<?xml version="1.0" encoding="utf-8"?>
<!-- Generator: Adobe Illustrator 19.0.0, SVG Export Plug-In . SVG Version: 6.00 Build 0)  -->
<svg version="1.1" id="图层_1" xmlns="http://www.w3.org/2000/svg" xmlns:xlink="http://www.w3.org/1999/xlink" x="0px" y="0px"
	 viewBox="0 0 28 18" style="enable-background:new 0 0 28 18;" xml:space="preserve">
<style type="text/css">
	.st0{fill:#222C29;}
</style>
<path id="XMLID_2_" class="st0" d="M0.3,0h27.4C27.9,0,28,0.1,28,0.3v3.4C28,3.9,27.9,4,27.7,4H0.3C0.1,4,0,3.9,0,3.7V0.3
	C0,0.1,0.1,0,0.3,0z"/>
<path id="XMLID_4_" class="st0" d="M0.3,7h27.4C27.9,7,28,7.1,28,7.3v3.4c0,0.2-0.1,0.3-0.3,0.3H0.3C0.1,11,0,10.9,0,10.7V7.3
	C0,7.1,0.1,7,0.3,7z"/>
<path id="XMLID_3_" class="st0" d="M0.3,14h27.4c0.2,0,0.3,0.1,0.3,0.3v3.4c0,0.2-0.1,0.3-0.3,0.3H0.3C0.1,18,0,17.9,0,17.7v-3.4
	C0,14.1,0.1,14,0.3,14z"/>
</svg>
