<?xml version="1.0" encoding="utf-8"?>
<!-- Generator: Adobe Illustrator 19.0.0, SVG Export Plug-In . SVG Version: 6.00 Build 0)  -->
<svg version="1.1" id="图层_1" xmlns="http://www.w3.org/2000/svg" xmlns:xlink="http://www.w3.org/1999/xlink" x="0px" y="0px"
	 viewBox="0 0 28 18" style="enable-background:new 0 0 28 18;" xml:space="preserve">
<style type="text/css">
	.st0{fill:#222C29;}
</style>
<path id="XMLID_2_" class="st0" d="M0.4,0h27.1C27.8,0,28,0.2,28,0.4v2.9c0,0.2-0.2,0.4-0.4,0.4H0.4C0.2,3.8,0,3.6,0,3.3V0.4
	C0,0.2,0.2,0,0.4,0z"/>
<path id="XMLID_3_" class="st0" d="M0.4,14.3h27.1c0.2,0,0.4,0.2,0.4,0.4v2.9c0,0.2-0.2,0.4-0.4,0.4H0.4C0.2,18,0,17.8,0,17.6v-2.9
	C0,14.4,0.2,14.3,0.4,14.3z"/>
<path id="XMLID_4_" class="st0" d="M0.4,7.1h27.1c0.2,0,0.4,0.2,0.4,0.4v2.9c0,0.2-0.2,0.4-0.4,0.4H0.4c-0.2,0-0.4-0.2-0.4-0.4V7.6
	C0,7.3,0.2,7.1,0.4,7.1z"/>
</svg>
